{
  "accessors": [
    {
      "bufferView": 2,
      "componentType": 5126,
      "count": 65532,
      "max": [
        0.9063270092010498,
        0.7194669842720032,
        2.2273600101470947
      ],
      "min": [
        -0.8376039862632751,
        -0.9503830075263977,
        -1.7754290103912354
      ],
      "type": "VEC3"
    },
    {
      "bufferView": 2,
      "byteOffset": 786384,
      "componentType": 5126,
      "count": 65532,
      "max": [
        0.9999940395355225,
        0.9999951124191284,
        1.0
      ],
      "min": [
        -0.999996542930603,
        -0.9999980926513672,
        -0.9999682903289795
      ],
      "type": "VEC3"
    },
    {
      "bufferView": 1,
      "componentType": 5126,
      "count": 65532,
      "max": [
        0.9878000020980835,
        0.9768999814987183
      ],
      "min": [
        0.00039999998989515007,
        0.00039999998989515007
      ],
      "type": "VEC2"
    },
    {
      "bufferView": 0,
      "componentType": 5125,
      "count": 326901,
      "type": "SCALAR"
    },
    {
      "bufferView": 2,
      "byteOffset": 1572768,
      "componentType": 5126,
      "count": 65532,
      "max": [
        0.9098119735717773,
        0.7110980153083801,
        2.2285470962524414
      ],
      "min": [
        -0.836463987827301,
        -0.9450250267982483,
        -1.7714580297470093
      ],
      "type": "VEC3"
    },
    {
      "bufferView": 2,
      "byteOffset": 2359152,
      "componentType": 5126,
      "count": 65532,
      "max": [
        0.9999966621398926,
        0.9999959468841553,
        0.9999995231628418
      ],
      "min": [
        -0.9999964237213135,
        -0.9999674558639526,
        -0.9998717308044434
      ],
      "type": "VEC3"
    },
    {
      "bufferView": 1,
      "byteOffset": 524256,
      "componentType": 5126,
      "count": 65532,
      "max": [
        0.9995999932289124,
        0.9782000184059143
      ],
      "min": [
        0.00039999998989515007,
        0.00039999998989515007
      ],
      "type": "VEC2"
    },
    {
      "bufferView": 0,
      "byteOffset": 1307604,
      "componentType": 5125,
      "count": 315525,
      "type": "SCALAR"
    },
    {
      "bufferView": 2,
      "byteOffset": 3145536,
      "componentType": 5126,
      "count": 8017,
      "max": [
        0.8844450116157532,
        0.705780029296875,
        2.2273600101470947
      ],
      "min": [
        -0.8376039862632751,
        -0.9450250267982483,
        -1.772886037826538
      ],
      "type": "VEC3"
    },
    {
      "bufferView": 2,
      "byteOffset": 3241740,
      "componentType": 5126,
      "count": 8017,
      "max": [
        0.9999964237213135,
        0.999915599822998,
        0.9999970197677612
      ],
      "min": [
        -0.9999713897705078,
        -0.9999939203262329,
        -0.9998461604118347
      ],
      "type": "VEC3"
    },
    {
      "bufferView": 1,
      "byteOffset": 1048512,
      "componentType": 5126,
      "count": 8017,
      "max": [
        0.9951000213623047,
        0.9758999943733215
      ],
      "min": [
        0.00570000009611249,
        0.004600000102072954
      ],
      "type": "VEC2"
    },
    {
      "bufferView": 0,
      "byteOffset": 2569704,
      "componentType": 5125,
      "count": 12216,
      "type": "SCALAR"
    }
  ],
  "asset": {
    "extras": {
      "author": "GSXNet (https://sketchfab.com/gsxn)",
      "license": "CC-BY-NC-4.0 (http://creativecommons.org/licenses/by-nc/4.0/)",
      "source": "https://sketchfab.com/3d-models/statue-photogrammetry-3d-reconstruction-a81e887d097949a8ad6b4f02ebe4a44c",
      "title": "Statue photogrammetry 3D reconstruction"
    },
    "generator": "Sketchfab-12.68.0",
    "version": "2.0"
  },
  "bufferViews": [
    {
      "buffer": 0,
      "byteLength": 2618568,
      "name": "floatBufferViews",
      "target": 34963
    },
    {
      "buffer": 0,
      "byteLength": 1112648,
      "byteOffset": 2618568,
      "byteStride": 8,
      "name": "floatBufferViews",
      "target": 34962
    },
    {
      "buffer": 0,
      "byteLength": 3337944,
      "byteOffset": 3731216,
      "byteStride": 12,
      "name": "floatBufferViews",
      "target": 34962
    }
  ],
  "buffers": [
    {
      "byteLength": 7069160,
      "uri": "scene.bin"
    }
  ],
  "extensionsUsed": [
    "KHR_materials_unlit"
  ],
  "images": [
    {
      "uri": "textures/Scene_-_Root_baseColor.jpeg"
    }
  ],
  "materials": [
    {
      "doubleSided": true,
      "extensions": {
        "KHR_materials_unlit": {}
      },
      "name": "Scene_-_Root",
      "pbrMetallicRoughness": {
        "baseColorTexture": {
          "index": 0
        },
        "metallicFactor": 0.0
      }
    }
  ],
  "meshes": [
    {
      "name": "Object_0",
      "primitives": [
        {
          "attributes": {
            "NORMAL": 1,
            "POSITION": 0,
            "TEXCOORD_0": 2
          },
          "indices": 3,
          "material": 0,
          "mode": 4
        }
      ]
    },
    {
      "name": "Object_1",
      "primitives": [
        {
          "attributes": {
            "NORMAL": 5,
            "POSITION": 4,
            "TEXCOORD_0": 6
          },
          "indices": 7,
          "material": 0,
          "mode": 4
        }
      ]
    },
    {
      "name": "Object_2",
      "primitives": [
        {
          "attributes": {
            "NORMAL": 9,
            "POSITION": 8,
            "TEXCOORD_0": 10
          },
          "indices": 11,
          "material": 0,
          "mode": 4
        }
      ]
    }
  ],
  "nodes": [
    {
      "children": [
        1
      ],
      "matrix": [
        1.0,
        0.0,
        0.0,
        0.0,
        0.0,
        2.220446049250313e-16,
        -1.0,
        0.0,
        0.0,
        1.0,
        2.220446049250313e-16,
        0.0,
        0.0,
        0.0,
        0.0,
        1.0
      ],
      "name": "Sketchfab_model"
    },
    {
      "children": [
        2,
        3,
        4
      ],
      "name": "Statue1.obj.cleaner.materialmerger.gles"
    },
    {
      "mesh": 0,
      "name": "Object_2"
    },
    {
      "mesh": 1,
      "name": "Object_3"
    },
    {
      "mesh": 2,
      "name": "Object_4"
    }
  ],
  "samplers": [
    {
      "magFilter": 9729,
      "minFilter": 9987,
      "wrapS": 10497,
      "wrapT": 10497
    }
  ],
  "scene": 0,
  "scenes": [
    {
      "name": "Sketchfab_Scene",
      "nodes": [
        0
      ]
    }
  ],
  "textures": [
    {
      "sampler": 0,
      "source": 0
    }
  ]
}
